<svg xmlns="http://www.w3.org/2000/svg" fill="black" viewBox="0 0 1000 150"><path fill-rule="evenodd" d="M894.75 119.01V47.28h16.1V31.54h55.63v15.74h16.29v24.7h-23.43V56.43H918V119Zm-90.59 0v-15.55h-16.1V47.28h16.1V31.54h55.63v15.74h16.29v24.7h-23.42V56.43H811.3v6.22h32.39v25.07h-32.4v6.4h41.37V78.2h23.42v25.07h-16.29v15.74Zm-122.8 30.38V47.28h16.11V31.54h55.63v15.74h16.3v56.18h-16.38V119H704.6v30.4Zm23.25-55.26h41.36v-37.7H704.6ZM574.5 119v-15.55h-16.1V47.28h16.1V31.54h55.63v15.73h16.37v46.85h16.2v24.9h-23.42v-15.56h-9.15V119Zm7.13-24.89H623v-37.7h-41.36Zm-124.44 24.9V15.97h16.1V.25h55.64v15.73h16.29v56h-16.38v15.74h-48.4v31.3Zm23.24-56.37h41.36V25.32h-41.36ZM357.64 119v-15.55h-16.1V47.28h16.1V31.54h55.63v15.73h16.38v46.85h16.2v24.9h-23.43v-15.56h-9.15V119Zm7.14-24.89h41.36v-37.7h-41.36Zm-124.44 24.9V47.27h16.1V31.54h55.63v15.74h16.3v24.7h-23.43V56.43h-41.36V119Zm-106.87 0v-15.56h-16.1V47.28h16.1V31.54h55.63v15.73h16.37v46.85h16.2v24.9h-23.42v-15.56h-9.15V119Zm7.13-24.9h41.36v-37.7H140.6Zm-108.33 24.9v-15.56h-16.1V.25H39.4v93.88h41.36V78.39h23.43v25.07h-16.3V119Z"></path></svg>
